<svg xmlns="http://www.w3.org/2000/svg" fill="none" viewBox="0 0 128 128" id="Apache-Spark--Streamline-Svg-Logos.svg" height="128" width="128"><desc>Apache Spark Streamline Icon: https://streamlinehq.com</desc><path fill="#E25A1C" d="M115.97946666666667 64.33773333333333c-0.10866666666666666 -0.23213333333333333 -0.15746666666666664 -0.3488 -0.216 -0.46026666666666666 -1.5705333333333331 -2.9875999999999996 -3.1370666666666662 -5.9753333333333325 -4.723733333333334 -8.962933333333332 -0.15906666666666666 -0.2996 -0.13893333333333333 -0.4764 0.07866666666666666 -0.7348 2.4992 -2.9190666666666663 4.965999999999999 -5.854266666666666 7.469199999999999 -8.761199999999999 0.08839999999999999 -0.10253333333333332 0.16720000000000002 -0.21106666666666665 0.20026666666666665 -0.39399999999999996 -0.7266666666666667 0.1893333333333333 -1.4534666666666667 0.3766666666666666 -2.184266666666667 0.5693333333333332 -3.0158666666666663 0.7993333333333333 -6.055999999999999 1.5946666666666665 -9.043733333333332 2.4062666666666663 -0.2805333333333333 0.07546666666666665 -0.40773333333333334 -0.006533333333333333 -0.5490666666666666 -0.23986666666666667 -1.7118666666666666 -2.8625333333333334 -3.4357333333333333 -5.733066666666667 -5.167866666666667 -8.5592 -0.08839999999999999 -0.14826666666666666 -0.1848 -0.292 -0.3737333333333333 -0.41586666666666666 -0.13893333333333333 0.7630666666666667 -0.27946666666666664 1.5221333333333331 -0.41586666666666666 2.2851999999999997 -0.4805333333333333 2.6928 -0.9609333333333333 5.369599999999999 -1.4373333333333334 8.074666666666666 -0.05213333333333334 0.2902666666666667 -0.12319999999999999 0.5814666666666666 -0.14813333333333334 0.8721333333333333 -0.023866666666666665 0.27773333333333333 -0.16720000000000002 0.38026666666666664 -0.42 0.46026666666666666 -3.5569333333333333 1.1182666666666665 -7.105733333333333 2.2447999999999997 -10.658666666666665 3.3712 -0.15573333333333333 0.048799999999999996 -0.30879999999999996 0.11346666666666666 -0.4764 0.2648 2.9069333333333334 1.1546666666666665 5.813866666666667 2.309333333333333 8.761199999999999 3.4842666666666666 -0.10746666666666667 0.0852 -0.17853333333333332 0.15146666666666667 -0.2572 0.20186666666666667 -1.8168 1.1749333333333332 -3.6377333333333333 2.349733333333333 -5.4505333333333335 3.5286666666666666 -0.21760000000000002 0.14213333333333333 -0.3896 0.16226666666666667 -0.6338666666666666 0.05213333333333334 -2.172133333333333 -0.9770666666666666 -4.360266666666666 -1.938 -6.540533333333333 -2.9069333333333334 -0.9770666666666666 -0.436 -1.8530666666666664 -1.0134666666666665 -2.5354666666666663 -1.8531999999999997 -1.5462666666666665 -1.8894666666666666 -1.2394666666666665 -4.037333333333333 0.8196 -5.3697333333333335 0.6742666666666667 -0.432 1.4413333333333331 -0.7509333333333333 2.2043999999999997 -1.0011999999999999 3.4842666666666666 -1.1345333333333332 6.984666666666667 -2.2286666666666664 10.4568 -3.3267999999999995 0.29306666666666664 -0.09333333333333334 0.428 -0.22413333333333332 0.4845333333333333 -0.5410666666666666 0.46826666666666666 -2.696933333333333 0.9488 -5.41 1.4373333333333334 -8.074666666666666 0.26 -1.4413333333333331 0.3972 -2.9150666666666667 1.0981333333333332 -4.239333333333333 0.26839999999999997 -0.5086666666666666 0.5894666666666666 -1.0051999999999999 0.9770666666666666 -1.4292 1.3888 -1.5422666666666667 3.3226666666666667 -1.5988 4.804399999999999 -0.1324 0.49666666666666665 0.4965333333333333 0.9205333333333333 1.0779999999999998 1.2879999999999998 1.6796 1.6149333333333333 2.6364 3.2055999999999996 5.288933333333333 4.804399999999999 7.9536 0.18773333333333334 0.3137333333333333 0.35653333333333337 0.3766666666666666 0.7025333333333333 0.28546666666666665 3.896 -1.0457333333333332 7.792133333333333 -2.075333333333333 11.7084 -3.1047999999999996 0.8074666666666667 -0.2128 1.6189333333333331 -0.28986666666666666 2.4466666666666663 -0.1352 1.7966666666666664 0.33586666666666665 2.5838666666666663 1.7037333333333333 1.9742666666666664 3.4438666666666666 -0.27573333333333333 0.7913333333333333 -0.7550666666666667 1.4574666666666665 -1.2919999999999998 2.091333333333333 -2.7212 3.2015999999999996 -5.450399999999999 6.419466666666667 -8.155466666666666 9.608933333333333 -0.2225333333333333 0.2616 -0.22693333333333332 0.44813333333333333 -0.07266666666666666 0.7429333333333333 1.6310666666666667 3.0724 3.2459999999999996 6.136799999999999 4.885199999999999 9.2456 0.38799999999999996 0.7348 0.6864 1.5018666666666667 0.6944 2.3456 0.019066666666666666 1.9218666666666666 -1.3888 3.4964 -3.2985333333333333 3.779066666666666 -1.0698666666666665 0.15626666666666666 -2.0630666666666664 -0.07226666666666666 -3.0683999999999996 -0.3816 -2.4425333333333334 -0.7549333333333333 -4.885199999999999 -1.4978666666666665 -7.348 -2.2366666666666664 -0.22733333333333333 -0.06786666666666666 -0.3141333333333333 -0.15786666666666666 -0.3549333333333333 -0.4021333333333333 -0.2809333333333333 -1.7239999999999998 -0.5894666666666666 -3.4438666666666666 -0.8881333333333333 -5.167866666666667 -0.0077333333333333325 -0.0472 0.0063999999999999994 -0.09759999999999999 0.014533333333333332 -0.20346666666666668 2.789733333333333 0.7712 5.5716 1.5301333333333331 8.438133333333333 2.3255999999999997" stroke-width="1"></path><path fill="#3C3A3E" d="m98.16813333333332 58.36373333333333 -0.9002666666666667 6.878799999999999c-0.2997333333333333 2.286133333333333 -0.5995999999999999 4.5672 -0.9004 6.8484l0.07106666666666667 0.048799999999999996c3.128933333333333 -3.4641333333333333 6.258 -6.944266666666666 9.447466666666667 -10.4568l0.25079999999999997 1.4453333333333334 0.3337333333333333 1.9601333333333333c0.11186666666666667 0.6541333333333332 0.22533333333333333 1.3081333333333331 0.34453333333333336 1.9601333333333333 0.048799999999999996 0.2633333333333333 -0.022266666666666664 0.424 -0.19706666666666664 0.6097333333333332 -2.0226666666666664 2.1155999999999997 -4.037333333333333 4.239199999999999 -6.055999999999999 6.379066666666667 -0.08853333333333332 0.0932 -0.172 0.1893333333333333 -0.2729333333333333 0.2998666666666666l0.12226666666666666 0.1993333333333333c0.020133333333333333 0.03213333333333333 0.04066666666666666 0.06346666666666667 0.06213333333333333 0.09386666666666667l3.474 4.885199999999999 6.9425333333333334 9.770399999999999c0.06293333333333333 0.08853333333333332 0.15413333333333332 0.15786666666666666 0.23173333333333335 0.23666666666666664l-0.0002666666666666667 0.047999999999999994 -1.3088 -0.0026666666666666666c-1.7619999999999998 -0.004133333333333333 -3.522933333333333 -0.009466666666666667 -5.299333333333333 -0.0017333333333333333 -0.29186666666666666 0 -0.45626666666666665 -0.08360000000000001 -0.6177333333333332 -0.33146666666666663 -2.608133333333333 -3.9728 -5.248533333333333 -7.9536 -7.832533333333332 -11.910266666666667l-0.11906666666666667 -0.17373333333333332c-0.054933333333333334 -0.07826666666666666 -0.11879999999999999 -0.1684 -0.20106666666666664 -0.2865333333333333l-1.0448 7.949333333333333c-0.20786666666666667 1.5787999999999998 -0.4152 3.1534666666666666 -0.6226666666666667 4.728h-5.773466666666666l0.0984 -0.8311999999999999c0.0324 -0.27399999999999997 0.0652 -0.5454666666666667 0.10066666666666665 -0.816 0.42093333333333327 -3.24 0.8464 -6.457333333333333 1.2711999999999999 -9.686l0.4245333333333333 -3.2335999999999996c0.5409333333333333 -4.118133333333333 1.0779999999999998 -8.236266666666666 1.6270666666666664 -12.3544 0.015733333333333332 -0.12146666666666667 0.09773333333333334 -0.27773333333333333 0.19706666666666664 -0.3423999999999999 1.9862666666666666 -1.2959999999999998 3.9807999999999995 -2.5798666666666668 5.975199999999999 -3.8637333333333332 0.028666666666666663 -0.018933333333333333 0.06946666666666666 -0.020666666666666667 0.172 -0.05053333333333333Zm-9.264533333333333 7.873733333333334 0.025466666666666665 0.037599999999999995 -0.5270666666666666 3.9929333333333332c-0.058399999999999994 0.4441333333333333 -0.11693333333333333 0.8892 -0.17546666666666666 1.3363999999999998l-1.9411999999999998 -0.0022666666666666664c-0.4278666666666667 -0.00013333333333333334 -0.8542666666666667 0.0007999999999999999 -1.2806666666666666 0.0038666666666666663 -0.864 0.0063999999999999994 -1.6511999999999998 0.5651999999999999 -1.9136 1.3726666666666667 -0.10106666666666667 0.3153333333333333 -0.13853333333333334 0.6541333333333332 -0.1829333333333333 0.9852l-1.6149333333333333 12.273599999999998c-0.13573333333333332 1.0334666666666665 -0.2665333333333333 2.0670666666666664 -0.4021333333333333 3.1168H75.52133333333333l0.23399999999999999 -1.8553333333333333c0.0196 -0.1528 0.0392 -0.30546666666666666 0.05906666666666666 -0.458l0.5238666666666667 -3.9889333333333328c0.17493333333333333 -1.3283999999999998 0.3502666666666666 -2.6526666666666667 0.5258666666666666 -3.9647999999999994 0.3044 -2.2972 0.5773333333333333 -4.602533333333334 0.9366666666666666 -6.903866666666667 0.4805333333333333 -3.0683999999999996 3.5326666666666666 -5.813866666666667 6.621333333333333 -5.934933333333333 1.4777333333333333 -0.06466666666666666 2.9593333333333334 -0.010933333333333333 4.481466666666666 -0.010933333333333333Zm-45.413199999999996 1.1236c2.696933333333333 1.7361333333333333 4.239199999999999 4.2796 4.602666666666666 7.4288 0.5005333333333333 4.481466666666666 -1.1506666666666665 8.195866666666666 -4.32 11.304666666666666 -2.0914666666666664 2.0226666666666664 -4.602666666666666 3.3065333333333333 -7.469199999999999 3.7426666666666666 -2.9204 0.4398666666666667 -5.669733333333333 -0.029199999999999997 -8.1372 -1.7045333333333332l-0.13946666666666666 -0.09613333333333332c-0.09159999999999999 -0.06466666666666666 -0.19093333333333332 -0.12119999999999999 -0.34839999999999993 -0.2205333333333333l-0.037066666666666664 -0.06213333333333333 -0.3728 2.7933333333333334 -0.11986666666666665 0.9089333333333333c-0.21106666666666665 1.6069333333333333 -0.42386666666666667 3.2177333333333333 -0.6257333333333333 4.844799999999999 -0.023466666666666667 0.18773333333333334 -0.0804 0.2573333333333333 -0.28226666666666667 0.2557333333333333 -1.5866666666666664 -0.006133333333333333 -3.173333333333333 0.0031999999999999997 -4.763999999999999 0 -0.0364 0 -0.07266666666666666 -0.012666666666666666 -0.15786666666666666 -0.037599999999999995l0.19093333333333332 -1.5210666666666666c0.03213333333333333 -0.2536 0.06453333333333333 -0.5070666666666667 0.09773333333333334 -0.7601333333333333 0.35 -2.6646666666666663 0.6984 -5.329333333333333 1.0537333333333332 -7.994 0.40773333333333334 -3.0522666666666667 0.7266666666666667 -6.0964 1.2474666666666665 -9.1244 0.9205333333333333 -5.3697333333333335 5.4909333333333326 -9.9724 10.820266666666665 -11.1432 3.0966666666666662 -0.6702666666666667 6.055999999999999 -0.3597333333333333 8.761066666666666 1.3847999999999998Zm-25.900133333333333 -9.9832c2.4910666666666668 0.09 4.481466666666666 1.2555999999999998 6.0156 3.1936 0.22813333333333333 0.2866666666666666 0.44919999999999993 0.5782666666666666 0.6713333333333332 0.8761333333333333l0.6650666666666667 0.8965333333333333 -5.173466666666666 3.8541333333333334c-0.2773333333333333 -0.436 -0.5247999999999999 -0.872 -0.8156 -1.2797333333333332 -0.7468 -1.0457333333333332 -1.6754666666666664 -1.8249333333333333 -3.0239999999999996 -1.9178666666666664 -1.1223999999999998 -0.07906666666666666 -2.0831999999999997 0.29 -2.8462933333333336 1.1183999999999998 -0.6823199999999999 0.7388 -0.7711466666666666 1.7925333333333333 -0.13404 2.6284 0.7024666666666667 0.9204 1.4696666666666665 1.7925333333333333 2.2568666666666664 2.6444 0.3726666666666667 0.40373333333333333 0.7498666666666667 0.8029333333333333 1.1286666666666667 1.2004l1.1389333333333331 1.1907999999999999c0.5690666666666666 0.596 1.1353333333333333 1.1951999999999998 1.6890666666666665 1.8077333333333332 1.1747999999999998 1.2918666666666665 2.1155999999999997 2.737333333333333 2.4062666666666663 4.521866666666666 0.34559999999999996 2.099333333333333 -0.07386666666666666 4.077733333333333 -1.0658666666666665 5.934933333333333 -1.8370666666666664 3.4116 -4.723733333333334 5.41 -8.559239999999999 6.0156 -1.6876266666666666 0.2725333333333333 -3.3671733333333336 0.21933333333333332 -5.0063466666666665 -0.2652 -2.1842266666666665 -0.6419999999999999 -3.70632 -2.0751999999999997 -4.6833599999999995 -4.077733333333333 -0.3452 -0.7146666666666667 -0.60964 -1.4696 -0.9205199999999999 -2.2366666666666664l5.65232 -3.0239999999999996 0.10408 0.25786666666666663c0.02185333333333333 0.053066666666666665 0.043853333333333334 0.104 0.06792 0.15386666666666665 0.06436 0.1284 0.12638666666666665 0.25839999999999996 0.18761333333333333 0.38893333333333335l0.18278666666666665 0.3925333333333333c0.18341333333333332 0.3921333333333333 0.37327999999999995 0.7802666666666667 0.6106799999999999 1.1362666666666665 1.1829466666666666 1.7562666666666664 3.0885866666666666 2.2892 5.0063466666666665 1.4212 0.4966533333333333 -0.22413333333333332 0.9770533333333333 -0.5369333333333333 1.3847866666666664 -0.9004 1.2435999999999998 -1.1061333333333332 1.4777333333333333 -2.6483999999999996 0.5571999999999999 -4.037333333333333 -0.5289333333333333 -0.7993333333333333 -1.1910666666666665 -1.518 -1.8370133333333334 -2.232666666666667 -1.5422799999999999 -1.7118666666666666 -3.14916 -3.3712 -4.642986666666666 -5.127466666666667 -1.0375999999999999 -1.2030666666666665 -1.7441466666666667 -2.5999999999999996 -1.97024 -4.198799999999999 -0.24425333333333332 -1.7604 0.1074 -3.415733333333333 1.0214533333333333 -4.8853333333333335 2.2730533333333334 -3.678 5.571586666666666 -5.571466666666667 9.931986666666667 -5.450399999999999Zm17.77453333333333 13.665333333333333c-3.4357333333333333 0.798 -5.917066666666667 3.4774666666666665 -6.286133333333333 6.981733333333333l-0.012133333333333333 0.124c-0.2665333333333333 2.6242666666666663 1.1465333333333332 5.167866666666667 3.7708 6.0964 2.1155999999999997 0.7630666666666667 4.158533333333333 0.4441333333333333 6.0561333333333325 -0.6904 2.5072 -1.5018666666666667 3.8637333333333332 -3.7345333333333333 4.037333333333333 -6.903866666666667h-0.027866666666666665c-0.08839999999999999 -0.44813333333333333 -0.15133333333333332 -1.1102666666666665 -0.35159999999999997 -1.728 -0.9689333333333333 -2.9835999999999996 -4.025333333333333 -4.602533333333334 -7.186533333333333 -3.8798666666666666Zm31.778533333333332 10.823333333333332 -0.016133333333333333 0.03319999999999999c-0.2902666666666667 2.2164 -0.5651999999999999 4.319866666666666 -0.8478666666666667 6.4193333333333324 -0.015733333333333332 0.10746666666666667 -0.09933333333333333 0.25239999999999996 -0.1893333333333333 0.29359999999999997 -4.32 1.9944 -9.972266666666666 1.7158666666666664 -13.4848 -2.2973333333333334 -1.8976 -2.1559999999999997 -2.692933333333333 -4.723733333333334 -2.5758666666666663 -7.5498666666666665 0.27573333333333333 -6.580933333333332 5.733066666666667 -12.3544 12.273599999999998 -13.161866666666665 3.8153333333333332 -0.46826666666666666 7.146133333333333 0.5611999999999999 9.730133333333333 3.5286666666666666 1.7602666666666666 2.0186666666666664 2.5758666666666663 4.441066666666666 2.4546666666666663 7.105733333333333 -0.07213333333333333 1.6136 -0.31026666666666664 3.2170666666666663 -0.5176 4.813466666666667l-0.05573333333333333 0.43520000000000003c-0.31079999999999997 2.478933333333333 -0.6499999999999999 4.965999999999999 -0.9769333333333333 7.4288l-0.017333333333333333 0.106c-0.0096 0.054933333333333334 -0.0208 0.11359999999999999 -0.03319999999999999 0.18106666666666665h-5.127466666666667l0.13346666666666665 -1.126c0.02266666666666667 -0.18626666666666664 0.04573333333333333 -0.3718666666666666 0.06999999999999999 -0.5576 0.37226666666666663 -2.8625333333333334 0.7833333333333333 -5.733066666666667 1.1102666666666665 -8.599599999999999 0.20346666666666668 -1.7845333333333333 0.07546666666666665 -3.5569333333333333 -0.7428 -5.208266666666667 -0.8681333333333333 -1.7562666666666664 -2.3216 -2.6889333333333334 -4.239333333333333 -2.8907999999999996 -3.9646666666666666 -0.41986666666666667 -7.751733333333332 2.3335999999999997 -8.5592 6.217599999999999 -0.5571999999999999 2.5758666666666663 0.3217333333333333 5.046666666666667 2.3739999999999997 6.419466666666667 1.998533333333333 1.3282666666666665 4.118133333333333 1.3322666666666665 6.298266666666667 0.47226666666666667 1.1062666666666665 -0.436 2.042933333333333 -1.1303999999999998 2.9392 -2.0630666666666664Z" stroke-width="1"></path><path fill="#3C3A3E" d="M32.123466666666666 58.52426666666666h1.3282666666666665l-0.3141333333333333 -2.0106666666666664 -1.0141333333333333 2.0106666666666664Zm1.5398666666666667 1.2999999999999998h-2.2101333333333333l-0.7024 1.3767999999999998h-1.5665333333333333l3.452 -6.459866666666667h1.5098666666666667l1.1749333333333332 6.459866666666667h-1.4494666666666665l-0.20826666666666666 -1.3767999999999998Zm7.9075999999999995 -3.7627999999999995h-0.7873333333333333l-0.2648 1.4897333333333331h0.7872c0.4765333333333333 0 0.852 -0.312 0.852 -0.9002666666666667 0 -0.37106666666666666 -0.21466666666666667 -0.57 -0.5398666666666666 -0.5881333333333333l-0.0472 -0.0013333333333333333Zm-1.9137333333333333 -1.3121333333333332 2.0751999999999997 0.012133333333333333c1.0819999999999999 0 1.8370666666666664 0.6459999999999999 1.8370666666666664 1.7521333333333333 0 1.3969333333333334 -0.9852 2.3335999999999997 -2.390133333333333 2.3335999999999997h-0.8922666666666667l-0.41986666666666667 2.361866666666667H38.51866666666666l1.1385333333333332 -6.459733333333333Zm8.494666666666667 3.7749333333333333h1.3282666666666665l-0.3137333333333333 -2.0106666666666664 -1.0145333333333333 2.0106666666666664Zm1.5357333333333332 1.2999999999999998h-2.21l-0.7025333333333333 1.3767999999999998h-1.5665333333333333l3.452 -6.459866666666667h1.51l1.1747999999999998 6.459866666666667h-1.4493333333333331l-0.20839999999999997 -1.3767999999999998Zm8.560133333333333 1.1603999999999999 -0.0024 0.0024c-0.45626666666666665 0.20826666666666666 -0.9569333333333333 0.33266666666666667 -1.4616 0.33266666666666667 -1.707733333333333 0 -2.777733333333333 -1.2798666666666665 -2.777733333333333 -2.8826666666666663 0 -2.050933333333333 1.7239999999999998 -3.7749333333333333 3.7749333333333333 -3.7749333333333333 0.5127999999999999 0 0.9770666666666666 0.12306666666666666 1.3566666666666667 0.3310666666666666l-0.18946666666666667 1.5462666666666665c-0.2837333333333333 -0.3137333333333333 -0.7428 -0.5329333333333333 -1.3079999999999998 -0.5329333333333333 -1.1749333333333332 0 -2.2206666666666663 1.0618666666666665 -2.2206666666666663 2.2931999999999997 0 0.9366666666666666 0.5894666666666666 1.6714666666666667 1.5181333333333333 1.6714666666666667 0.5691999999999999 0 1.1182666666666665 -0.21919999999999998 1.4897333333333331 -0.5207999999999999l-0.17959999999999998 1.5342666666666667Zm8.480133333333333 -2.3796h-2.8101333333333334l-0.45613333333333334 2.596h-1.3445333333333331l1.1385333333333332 -6.459866666666667h1.3485333333333334l-0.45213333333333333 2.5515999999999996h2.8058666666666667l0.45626666666666665 -2.5515999999999996h1.3485333333333334l-1.1385333333333332 6.459866666666667h-1.3485333333333334l0.45226666666666665 -2.596Zm4.8427999999999995 2.575733333333333 1.1365333333333334 -6.451733333333333h3.577066666666666l-0.22733333333333333 1.3001333333333331h-2.2286666666666664l-0.22719999999999999 1.2515999999999998h2.046933333333333l-0.22733333333333333 1.2999999999999998h-2.046933333333333l-0.22733333333333333 1.2999999999999998h2.2286666666666664l-0.22733333333333333 1.2999999999999998H71.57066666666665Z" stroke-width="1"></path></svg>